<svg width="56" height="50" viewBox="0 0 56 50" fill="none" xmlns="http://www.w3.org/2000/svg">
<path d="M55.9961 25.0009C55.9961 37.6274 45.5137 48.0661 31.8963 49.76C30.623 49.9177 29.3203 50 27.998 50C26.4717 50 24.9728 49.8914 23.5132 49.6812C10.1822 47.7648 0 37.4435 0 25.0009C0 11.1936 12.5364 0 28 0C43.4636 0 56 11.1936 56 25.0009H55.9961Z" fill="#FF6967"/>
<path d="M11.3549 11.0272L24.268 26.4426L11.2744 38.9763H14.1996L25.5766 28.0034L34.768 38.9763H44.7206L31.0816 22.6938L43.1766 11.0272H40.2514L29.775 21.133L21.3095 11.0272H11.3568H11.3549ZM15.6553 12.9506H20.2265L40.4162 37.0529H35.845L15.6553 12.9506Z" fill="white"/>
</svg>
