<svg width="56" height="50" viewBox="0 0 56 50" fill="none" xmlns="http://www.w3.org/2000/svg">
<path d="M28.0638 0L27.9362 0C12.5075 0 0 11.1674 0 24.9431L0 25.0569C0 38.8326 12.5075 50 27.9362 50H28.0638C43.4925 50 56 38.8326 56 25.0569V24.9431C56 11.1674 43.4925 0 28.0638 0Z" fill="#FF6967"/>
<path d="M36.6649 10.1725H19.3369C14.5497 10.1725 10.6553 13.6497 10.6553 17.9239L10.6553 32.078C10.6553 36.3523 14.5497 39.8295 19.3369 39.8295H36.6649C41.452 39.8295 45.3465 36.3523 45.3465 32.078V17.9239C45.3465 13.6497 41.452 10.1725 36.6649 10.1725ZM13.7179 17.9239C13.7179 15.1579 16.239 12.907 19.3369 12.907H36.6649C39.7628 12.907 42.2839 15.1579 42.2839 17.9239V32.078C42.2839 34.844 39.7628 37.095 36.6649 37.095H19.3369C16.239 37.095 13.7179 34.844 13.7179 32.078L13.7179 17.9239Z" fill="white"/>
<path d="M28.0012 32.2094C32.4529 32.2094 36.0766 28.9757 36.0766 24.9992C36.0766 21.0228 32.4548 17.7891 28.0012 17.7891C23.5476 17.7891 19.9258 21.0228 19.9258 24.9992C19.9258 28.9757 23.5476 32.2094 28.0012 32.2094ZM28.0012 20.5253C30.7656 20.5253 33.014 22.5328 33.014 25.001C33.014 27.4692 30.7656 29.4767 28.0012 29.4767C25.2368 29.4767 22.9884 27.4692 22.9884 25.001C22.9884 22.5328 25.2368 20.5253 28.0012 20.5253Z" fill="white"/>
<path d="M36.8242 18.954C38.023 18.954 39 18.0834 39 17.0113C39 15.9392 38.025 15.0686 36.8242 15.0686C35.6235 15.0686 34.6484 15.9392 34.6484 17.0113C34.6484 18.0834 35.6235 18.954 36.8242 18.954Z" fill="white"/>
</svg>
