<svg width="20" height="20" viewBox="0 0 20 20" fill="none" xmlns="http://www.w3.org/2000/svg">
<path d="M8.41588 0C3.76789 0 0.000105198 3.76825 0 8.41596C0 13.0637 3.76789 16.8319 8.41588 16.8319C10.3481 16.8319 12.1614 16.1492 13.582 15.054L18.1796 19.6923C18.5905 20.1026 19.281 20.1026 19.6919 19.6923C20.1027 19.281 20.1027 18.5909 19.6919 18.1795L15.0568 13.576C16.1518 12.1558 16.8318 10.3485 16.8318 8.41596C16.8318 3.76825 13.0639 0 8.41588 0ZM8.41588 2.10399C11.9018 2.10399 14.7277 4.92965 14.7278 8.41596C14.7278 11.9023 11.9018 14.7279 8.41588 14.7279C4.92992 14.7279 2.10407 11.9023 2.10397 8.41596C2.10397 4.92965 4.92992 2.10399 8.41588 2.10399Z" fill="white"/>
</svg>
