<svg width="17" height="18" viewBox="0 0 17 18" fill="none" xmlns="http://www.w3.org/2000/svg">
<path d="M9.47326 0.378142C8.92714 -0.126047 8.07286 -0.126047 7.52674 0.378142L0.665097 6.71297C0.24055 7.10492 0 7.65027 0 8.22077V15.925C0 17.0709 0.951391 18 2.125 18H4.25C5.42361 18 6.375 17.0709 6.375 15.925V12.4666C6.375 12.0846 6.69213 11.775 7.08333 11.775H9.91667C10.3079 11.775 10.625 12.0846 10.625 12.4666V15.925C10.625 17.0709 11.5764 18 12.75 18H14.875C16.0486 18 17 17.0709 17 15.925V8.22077C17 7.65027 16.7595 7.10492 16.3349 6.71297L9.47326 0.378142Z" fill="#100000"/>
</svg>
