<svg width="56" height="50" viewBox="0 0 56 50" fill="none" xmlns="http://www.w3.org/2000/svg">
<path d="M55.9961 25.0008C55.9961 37.6274 45.5137 48.066 31.8963 49.7599C30.623 49.9176 29.3203 49.9999 27.998 49.9999C26.4717 49.9999 24.9728 49.8913 23.5132 49.6811C10.1822 47.7647 0 37.4434 0 25.0008C0 11.1936 12.5364 0 28 0C43.4636 0 56 11.1936 56 25.0008H55.9961Z" fill="#FF6967"/>
<path d="M31.8966 20.075V25.5212H39.442L38.2472 32.8574H31.8966V49.76C30.6234 49.9176 29.3207 50 27.9984 50C26.472 50 24.9731 49.8914 23.5135 49.6812V32.8574H16.5547V25.5212H23.5135V18.8575C23.5135 14.7234 27.2666 11.3706 31.8986 11.3706V11.3741C31.9123 11.3741 31.9241 11.3706 31.9378 11.3706H39.444V17.7154H34.5393C33.0816 17.7154 31.8986 18.7717 31.8986 20.0733L31.8966 20.075Z" fill="white"/>
</svg>
