<svg width="22" height="19" viewBox="0 0 22 19" fill="none" xmlns="http://www.w3.org/2000/svg">
<path d="M10.8333 7.23505C13.2265 7.23505 15.1667 5.61543 15.1667 3.61753C15.1667 1.61962 13.2265 0 10.8333 0C8.4401 0 6.5 1.61962 6.5 3.61753C6.5 5.61543 8.4401 7.23505 10.8333 7.23505ZM3.79167 9.9482C5.28744 9.9482 6.5 8.93592 6.5 7.68724C6.5 6.43855 5.28744 5.42629 3.79167 5.42629C2.2959 5.42629 1.08333 6.43855 1.08333 7.68724C1.08333 8.93592 2.2959 9.9482 3.79167 9.9482ZM20.5833 7.68724C20.5833 8.93592 19.3708 9.9482 17.875 9.9482C16.3792 9.9482 15.1667 8.93592 15.1667 7.68724C15.1667 6.43855 16.3792 5.42629 17.875 5.42629C19.3708 5.42629 20.5833 6.43855 20.5833 7.68724ZM10.8333 8.13943C13.8248 8.13943 16.25 10.164 16.25 12.6613V18.0876H5.41667V12.6613C5.41667 10.164 7.84179 8.13943 10.8333 8.13943ZM3.25 12.6612C3.25 12.0346 3.35906 11.4292 3.56219 10.8576L3.37853 10.871C1.47878 11.0429 0 12.3862 0 14.0178V18.0875H3.25V12.6612ZM21.6667 18.0875V14.0178C21.6667 12.3338 20.0914 10.9569 18.1044 10.8576C18.3076 11.4292 18.4167 12.0346 18.4167 12.6612V18.0875H21.6667Z" fill="black"/>
</svg>
